<?xml version="1.0" encoding="UTF-8" standalone="no"?>
<!-- Uploaded to: SVG Repo, www.svgrepo.com, Generator: SVG Repo Mixer Tools -->

<svg
   fill="#000000"
   width="800px"
   height="800px"
   viewBox="0 0 32 32"
   id="icon"
   version="1.1"
   sodipodi:docname="fog-svgrepo-com.svg"
   inkscape:version="1.1.2 (b8e25be833, 2022-02-05)"
   xmlns:inkscape="http://www.inkscape.org/namespaces/inkscape"
   xmlns:sodipodi="http://sodipodi.sourceforge.net/DTD/sodipodi-0.dtd"
   xmlns="http://www.w3.org/2000/svg"
   xmlns:svg="http://www.w3.org/2000/svg">
  <sodipodi:namedview
     id="namedview14"
     pagecolor="#ffffff"
     bordercolor="#666666"
     borderopacity="1.0"
     inkscape:pageshadow="2"
     inkscape:pageopacity="0.0"
     inkscape:pagecheckerboard="0"
     showgrid="false"
     inkscape:zoom="0.89875"
     inkscape:cx="400"
     inkscape:cy="399.44367"
     inkscape:window-width="2240"
     inkscape:window-height="1306"
     inkscape:window-x="-11"
     inkscape:window-y="-11"
     inkscape:window-maximized="1"
     inkscape:current-layer="icon" />
  <defs
     id="defs4">
    <style
       id="style2">.cls-1{fill:none;}</style>
  </defs>
  <title
     id="title6">fog</title>
  <path
     id="path8"
     style="stroke-width:25"
     d="M 400.01172 100 A 224.845 224.845 0 0 0 180.00586 278.45508 A 163.325 163.325 0 0 0 50 437.5 L 50 475 A 25 25 0 0 0 75 500 L 375 500 A 25 25 0 0 0 375 450 L 100 450 L 100 437.58594 A 112.94 112.94 0 0 1 203.59961 325.53711 L 223.98828 323.9375 L 226.46484 303.63672 A 174.84 174.84 0 0 1 573.56055 303.63672 L 576.02539 323.9375 L 596.41016 325.53711 A 112.405 112.405 0 0 1 587.5 550 L 175 550 A 25 25 0 0 0 175 600 L 587.5 600 A 162.4075 162.4075 0 0 0 620.01953 278.45508 A 224.845 224.845 0 0 0 400.01172 100 z M 75 650 C 61.15 650 50 661.15 50 675 C 50 688.85 61.15 700 75 700 L 475 700 C 488.85 700 500 688.85 500 675 C 500 661.15 488.85 650 475 650 L 75 650 z "
     transform="scale(0.04)" />
</svg>
