<?xml version="1.0" encoding="UTF-8" standalone="no"?>
<!-- Uploaded to: SVG Repo, www.svgrepo.com, Generator: SVG Repo Mixer Tools -->

<svg
   fill="#000000"
   width="800px"
   height="800px"
   viewBox="0 0 32 32"
   id="icon"
   version="1.1"
   sodipodi:docname="rain-drizzle-svgrepo-com.svg"
   inkscape:version="1.1.2 (b8e25be833, 2022-02-05)"
   xmlns:inkscape="http://www.inkscape.org/namespaces/inkscape"
   xmlns:sodipodi="http://sodipodi.sourceforge.net/DTD/sodipodi-0.dtd"
   xmlns="http://www.w3.org/2000/svg"
   xmlns:svg="http://www.w3.org/2000/svg">
  <sodipodi:namedview
     id="namedview14"
     pagecolor="#ffffff"
     bordercolor="#666666"
     borderopacity="1.0"
     inkscape:pageshadow="2"
     inkscape:pageopacity="0.0"
     inkscape:pagecheckerboard="0"
     showgrid="false"
     inkscape:zoom="0.89875"
     inkscape:cx="400"
     inkscape:cy="399.44367"
     inkscape:window-width="2240"
     inkscape:window-height="1306"
     inkscape:window-x="-11"
     inkscape:window-y="-11"
     inkscape:window-maximized="1"
     inkscape:current-layer="icon" />
  <defs
     id="defs4">
    <style
       id="style2">.cls-1{fill:none;}</style>
  </defs>
  <title
     id="title6">rain--drizzle</title>
  <path
     id="path8"
     style="stroke-width:25"
     d="M 400.01172 49.998047 A 224.8575 224.8575 0 0 0 180.00586 228.4043 A 162.4325 162.4325 0 0 0 212.5 550 L 484.5332 550 L 452.625 613.81836 A 25.002594 25.002594 0 0 0 497.34961 636.18164 L 540.44336 550 L 587.5 550 A 162.435 162.435 0 0 0 620.01953 228.4043 A 224.8575 224.8575 0 0 0 400.01172 49.998047 z M 396.44531 100.0293 A 174.845 174.845 0 0 1 573.56055 253.57812 L 576.02539 273.87695 L 596.41016 275.47461 A 112.4375 112.4375 0 0 1 587.5 500 L 212.5 500 A 112.4375 112.4375 0 0 1 203.59961 275.47461 L 223.98828 273.87695 L 226.46484 253.57812 A 174.845 174.845 0 0 1 396.44531 100.0293 z M 324.7207 599.82617 A 25 25 0 0 0 302.64062 613.81445 L 252.64062 713.81445 A 25 25 0 0 0 275 750 A 24.9475 24.9475 0 0 0 297.35742 736.17969 L 347.35742 636.17969 A 25 25 0 0 0 324.7207 599.82617 z "
     transform="scale(0.04)" />
</svg>
