<?xml version="1.0" encoding="UTF-8" standalone="no"?>
<!-- Uploaded to: SVG Repo, www.svgrepo.com, Generator: SVG Repo Mixer Tools -->

<svg
   fill="#000000"
   width="800px"
   height="800px"
   viewBox="0 0 32 32"
   id="icon"
   version="1.1"
   sodipodi:docname="smoke-svgrepo-com.svg"
   inkscape:version="1.1.2 (b8e25be833, 2022-02-05)"
   xmlns:inkscape="http://www.inkscape.org/namespaces/inkscape"
   xmlns:sodipodi="http://sodipodi.sourceforge.net/DTD/sodipodi-0.dtd"
   xmlns="http://www.w3.org/2000/svg"
   xmlns:svg="http://www.w3.org/2000/svg">
  <sodipodi:namedview
     id="namedview20"
     pagecolor="#ffffff"
     bordercolor="#666666"
     borderopacity="1.0"
     inkscape:pageshadow="2"
     inkscape:pageopacity="0.0"
     inkscape:pagecheckerboard="0"
     showgrid="false"
     inkscape:zoom="0.89875"
     inkscape:cx="400"
     inkscape:cy="399.44367"
     inkscape:window-width="2240"
     inkscape:window-height="1306"
     inkscape:window-x="-11"
     inkscape:window-y="-11"
     inkscape:window-maximized="1"
     inkscape:current-layer="icon" />
  <defs
     id="defs4">
    <style
       id="style2">.cls-1{fill:none;}</style>
  </defs>
  <title
     id="title6">smoke</title>
  <path
     id="path8"
     style="stroke-width:25"
     d="M 99.183594 100.01367 A 25 25 0 0 0 80 140 L 100.35547 167.13672 A 174.89 174.89 0 0 1 131.47656 308.80469 L 94.636719 480.71094 A 224.94 224.94 0 0 0 134.63672 662.84961 L 155 690 A 24.95 24.95 0 0 0 175.02539 700 A 25 25 0 0 0 195 660 L 174.64453 632.85547 A 174.89 174.89 0 0 1 143.5293 491.18555 L 180.375 319.2832 A 224.94 224.94 0 0 0 140.36328 137.14258 L 120 110 A 25 25 0 0 0 99.183594 100.01367 z M 224.18359 100.01367 A 25 25 0 0 0 205 140 L 225.35547 167.13672 A 174.89 174.89 0 0 1 256.4707 308.80469 L 219.63086 480.71094 A 224.94 224.94 0 0 0 259.64258 662.84961 L 280.00586 690 A 24.95 24.95 0 0 0 300.02539 700 A 25 25 0 0 0 320 660 L 299.65039 632.85742 A 174.89 174.89 0 0 1 268.53516 491.1875 L 305.375 319.2832 A 224.94 224.94 0 0 0 265.36328 137.14258 L 245 110 A 25 25 0 0 0 224.18359 100.01367 z M 349.18359 100.01367 A 25 25 0 0 0 330 140 L 350.35547 167.13477 A 174.89 174.89 0 0 1 381.4707 308.80469 L 344.63086 480.71094 A 224.94 224.94 0 0 0 384.64258 662.84961 L 405.00586 690 A 24.95 24.95 0 0 0 425.02539 700 A 25 25 0 0 0 445 660 L 424.65039 632.85742 A 174.89 174.89 0 0 1 393.53516 491.1875 L 430.375 319.2832 A 224.94 224.94 0 0 0 390.36328 137.14258 L 370 110 A 25 25 0 0 0 349.18359 100.01367 z M 474.18359 100.01367 A 25 25 0 0 0 455 140 L 475.35547 167.13477 A 174.89 174.89 0 0 1 506.4707 308.80469 L 469.63086 480.71094 A 224.94 224.94 0 0 0 509.64258 662.84961 L 530.00586 690 A 24.95 24.95 0 0 0 550.02539 700 A 25 25 0 0 0 570 660 L 549.65039 632.85742 A 174.89 174.89 0 0 1 518.53516 491.1875 L 555.375 319.2832 A 224.94 224.94 0 0 0 515.36328 137.14258 L 495 110 A 25 25 0 0 0 474.18359 100.01367 z M 599.18359 100.01367 A 25 25 0 0 0 580 140 L 600.35547 167.13477 A 174.89 174.89 0 0 1 631.4707 308.80469 L 594.63086 480.71094 A 224.94 224.94 0 0 0 634.64258 662.84961 L 655.00586 690 A 24.95 24.95 0 0 0 675.02539 700 A 25 25 0 0 0 695 660 L 674.65039 632.85742 A 174.89 174.89 0 0 1 643.53516 491.1875 L 680.375 319.2832 A 224.94 224.94 0 0 0 640.36328 137.14258 L 620 110 A 25 25 0 0 0 599.18359 100.01367 z "
     transform="scale(0.04)" />
</svg>
