<?xml version="1.0" encoding="UTF-8" standalone="no"?>
<!-- Uploaded to: SVG Repo, www.svgrepo.com, Generator: SVG Repo Mixer Tools -->

<svg
   fill="#000000"
   width="800px"
   height="800px"
   viewBox="0 0 32 32"
   id="icon"
   version="1.1"
   sodipodi:docname="thunderstorm-strong-svgrepo-com.svg"
   inkscape:version="1.1.2 (b8e25be833, 2022-02-05)"
   xmlns:inkscape="http://www.inkscape.org/namespaces/inkscape"
   xmlns:sodipodi="http://sodipodi.sourceforge.net/DTD/sodipodi-0.dtd"
   xmlns="http://www.w3.org/2000/svg"
   xmlns:svg="http://www.w3.org/2000/svg">
  <sodipodi:namedview
     id="namedview18"
     pagecolor="#ffffff"
     bordercolor="#666666"
     borderopacity="1.0"
     inkscape:pageshadow="2"
     inkscape:pageopacity="0.0"
     inkscape:pagecheckerboard="0"
     showgrid="false"
     inkscape:zoom="0.89875"
     inkscape:cx="400"
     inkscape:cy="399.44367"
     inkscape:window-width="2240"
     inkscape:window-height="1306"
     inkscape:window-x="-11"
     inkscape:window-y="-11"
     inkscape:window-maximized="1"
     inkscape:current-layer="icon" />
  <defs
     id="defs4">
    <style
       id="style2">.cls-1{fill:none;}</style>
  </defs>
  <title
     id="title6">thunderstorm--strong</title>
  <path
     d="M21,30a1,1,0,0,1-.8944-1.4474l2-4.0005a1,1,0,1,1,1.7888.8947l-2,4A.9981.9981,0,0,1,21,30Z"
     id="path8" />
  <path
     d="M9,32a1,1,0,0,1-.8944-1.4474l2-4.0005a1,1,0,1,1,1.7888.8947l-2,4A.9981.9981,0,0,1,9,32Z"
     id="path10" />
  <polygon
     points="15.901 30.496 14.165 29.504 17.31 24 11.31 24 16.165 15.504 17.901 16.496 14.756 22 20.757 22 15.901 30.496"
     id="polygon12" />
  <path
     d="M24.8008,9.1362a8.9943,8.9943,0,0,0-17.6006,0,6.4929,6.4929,0,0,0,.23,12.7681L6.106,24.5527a1,1,0,1,0,1.7885.8946l2-4a1,1,0,0,0-.447-1.3418A.9786.9786,0,0,0,9,20.01V20H8.5a4.4975,4.4975,0,0,1-.356-8.981l.8155-.0639.0991-.812a6.9938,6.9938,0,0,1,13.8838,0l.0986.812.8154.0639A4.4975,4.4975,0,0,1,23.5,20H23v2h.5A6.4974,6.4974,0,0,0,24.8008,9.1362Z"
     id="path14" />
</svg>
