<?xml version="1.0" encoding="UTF-8" standalone="no"?>
<!-- Created with Inkscape (http://www.inkscape.org/) -->

<svg
   width="800"
   height="300"
   viewBox="0 0 211.66666 79.375002"
   version="1.1"
   id="svg896"
   inkscape:version="1.1.2 (b8e25be833, 2022-02-05)"
   sodipodi:docname="logo.svg"
   xmlns:inkscape="http://www.inkscape.org/namespaces/inkscape"
   xmlns:sodipodi="http://sodipodi.sourceforge.net/DTD/sodipodi-0.dtd"
   xmlns="http://www.w3.org/2000/svg"
   xmlns:svg="http://www.w3.org/2000/svg">
  <sodipodi:namedview
     id="namedview898"
     pagecolor="#ffffff"
     bordercolor="#666666"
     borderopacity="1.0"
     inkscape:pageshadow="2"
     inkscape:pageopacity="0.0"
     inkscape:pagecheckerboard="0"
     inkscape:document-units="mm"
     showgrid="false"
     units="px"
     inkscape:zoom="1.2810466"
     inkscape:cx="384.84158"
     inkscape:cy="345.03038"
     inkscape:window-width="2240"
     inkscape:window-height="1306"
     inkscape:window-x="-11"
     inkscape:window-y="-11"
     inkscape:window-maximized="1"
     inkscape:current-layer="layer1"
     width="800px" />
  <defs
     id="defs893" />
  <g
     inkscape:label="Layer 1"
     inkscape:groupmode="layer"
     id="layer1">
    <path
       id="path48846"
       style="font-weight:600;font-size:8.46667px;line-height:1.25;font-family:'Montserrat Thin';-inkscape-font-specification:'Montserrat Thin,  Semi-Bold';word-spacing:5.29167px;stroke-width:0.80066"
       d="m 185.29684,13.229164 c -0.6628,0 -1.201,0.53788 -1.201,1.20099 v 2.40199 c 0,0.66347 0.53788,1.20099 1.201,1.20099 0.66275,0 1.20099,-0.53644 1.20099,-1.20099 v -2.40199 c 0,-0.66347 -0.53788,-1.20099 -1.20099,-1.20099 z m -9.34214,3.87042 c -0.3072,0 -0.61452,0.1176 -0.84912,0.35199 -0.46904,0.46908 -0.46904,1.22983 0,1.69831 l 1.69827,1.69827 c 0.46976,0.46832 1.22931,0.46832 1.69831,0 0.46832,-0.46903 0.46832,-1.22987 0,-1.69827 l -1.69831,-1.69831 c -0.2348,-0.23399 -0.5414,-0.35199 -0.84915,-0.35199 z m 18.68271,0 c -0.30719,0 -0.61451,0.1176 -0.84919,0.35199 l -1.69827,1.69831 c -0.46836,0.46904 -0.46836,1.2298 0,1.69827 0.46904,0.46832 1.22987,0.46832 1.69827,0 l 1.69827,-1.69827 c 0.46904,-0.46904 0.46904,-1.22995 0,-1.69831 -0.234,-0.23399 -0.5414,-0.35199 -0.84908,-0.35199 z m -9.34057,3.33406 c -2.31699,0 -4.37298,1.09819 -5.69065,2.79602 -0.86179,-0.2532 -1.77219,-0.3924 -2.71634,-0.3924 -5.30593,0 -9.60794,4.30049 -9.60794,9.60646 0,3.55474 1.93571,6.65072 4.80397,8.313072 v -2.952432 c -1.47079,-1.31935 -2.40198,-3.22866 -2.40198,-5.36064 0,-3.9793 3.22662,-7.20448 7.20595,-7.20448 3.41778,0 6.2644,2.38491 7.00423,5.57809 0.75076,-0.48608 1.64132,-0.77411 2.60219,-0.77411 2.6533,0 4.80397,2.1513 4.80397,4.80396 0,1.77719 -0.96572,3.32442 -2.40043,4.15506 v 2.631902 c 2.79678,-0.99047 4.80397,-3.650182 4.80397,-6.786962 0,-1.7619 -0.63507,-3.37574 -1.68571,-4.62729 0.308,-0.80163 0.48464,-1.66919 0.48464,-2.58014 0,-3.98005 -3.22662,-7.20595 -7.20595,-7.20595 z m 0,2.40346 c 0.0832,0 0.1652,3.6e-4 0.2468,0.008 0.0824,0.008 0.16319,0.008 0.24399,0.02 0.0808,0.008 0.1612,0.02 0.2412,0.028 0.0796,0.016 0.1584,0.028 0.2364,0.0424 0.078,0.016 0.156,0.036 0.2328,0.0568 0.0768,0.02 0.152,0.0424 0.2264,0.064 0.0752,0.02 0.1504,0.0496 0.22359,0.0752 0.0736,0.028 0.1468,0.0568 0.2184,0.086 0.0716,0.028 0.1424,0.064 0.2128,0.0952 0.0708,0.036 0.1384,0.0708 0.2064,0.1064 0.0708,0.036 0.1356,0.076 0.2016,0.1156 0.064,0.0424 0.13,0.0824 0.1936,0.1248 0.064,0.0424 0.1276,0.0888 0.1896,0.13399 0.064,0.0496 0.122,0.0928 0.1808,0.142 0.0568,0.0496 0.1172,0.0988 0.174,0.1504 0.0568,0.0496 0.1128,0.1052 0.1676,0.1596 0.0568,0.0568 0.108,0.1108 0.15959,0.1676 0.0496,0.0568 0.1008,0.1144 0.1496,0.174 0.0496,0.0568 0.0964,0.12 0.142,0.1816 0.0424,0.064 0.0916,0.1256 0.134,0.1888 0.0424,0.064 0.0852,0.12759 0.1248,0.19359 0.0424,0.064 0.0788,0.1336 0.1156,0.2016 0.036,0.0708 0.0724,0.1376 0.1064,0.208 0.036,0.0708 0.064,0.1404 0.0952,0.2128 0.028,0.0724 0.0568,0.144 0.086,0.2172 0.028,0.074 0.0568,0.1484 0.0768,0.2236 0.02,0.0752 0.0424,0.152 0.064,0.2284 0.02,0.0768 0.036,0.1532 0.0568,0.2312 0.016,0.078 0.028,0.1584 0.0424,0.23759 0.016,0.0796 0.02,0.1584 0.028,0.2392 0.008,0.0808 0.016,0.1624 0.02,0.244 0.003,0.0824 0.008,0.1652 0.008,0.2492 0,0.078 -0.002,0.1552 -0.008,0.2328 -0.003,0.078 -0.008,0.1548 -0.02,0.2312 -0.008,0.0768 -0.02,0.15239 -0.028,0.22839 -0.016,0.0752 -0.02,0.1496 -0.0424,0.2236 -0.064,-0.036 -0.1304,-0.0708 -0.1972,-0.1052 -0.064,-0.036 -0.1328,-0.0708 -0.2,-0.1016 -0.0708,-0.036 -0.1348,-0.064 -0.2036,-0.0936 -0.0708,-0.028 -0.1384,-0.0568 -0.208,-0.0872 -0.0708,-0.028 -0.1392,-0.0568 -0.2092,-0.0832 -0.0708,-0.028 -0.1424,-0.0496 -0.21439,-0.0752 -0.0716,-0.02 -0.1432,-0.0496 -0.2156,-0.0708 -0.0724,-0.02 -0.1456,-0.0424 -0.2184,-0.064 -0.074,-0.02 -0.1476,-0.036 -0.222,-0.0568 -0.0744,-0.02 -0.1496,-0.036 -0.2248,-0.0496 -0.0752,-0.016 -0.1524,-0.028 -0.2284,-0.0424 -0.076,-0.016 -0.1528,-0.02 -0.23,-0.036 -0.0768,-0.008 -0.154,-0.02 -0.2312,-0.028 -0.078,-0.008 -0.156,-0.016 -0.2348,-0.02 -0.078,-0.008 -0.15679,-0.008 -0.23639,-0.016 h -0.2392 c -0.0496,0 -0.1028,-8e-5 -0.1548,0 -0.0496,0 -0.1036,0.008 -0.1548,0.008 -0.1028,0.008 -0.2052,0.016 -0.3064,0.02 -0.1016,0.016 -0.2028,0.02 -0.30279,0.036 -0.1008,0.016 -0.2008,0.036 -0.3,0.0496 -0.0496,-0.09 -0.1028,-0.1808 -0.156,-0.2688 -0.0568,-0.0888 -0.1072,-0.176 -0.1624,-0.2624 -0.0568,-0.0864 -0.1136,-0.1716 -0.1716,-0.256 -0.0568,-0.0844 -0.1184,-0.16759 -0.1796,-0.25039 -0.064,-0.0824 -0.1236,-0.164 -0.1872,-0.244 -0.064,-0.08 -0.1292,-0.1596 -0.196,-0.2376 -0.064,-0.078 -0.1336,-0.1568 -0.2016,-0.2328 -0.0708,-0.076 -0.1384,-0.1496 -0.21,-0.2236 -0.0708,-0.074 -0.14399,-0.1476 -0.21719,-0.2184 -0.0736,-0.0716 -0.1476,-0.142 -0.2236,-0.2116 -0.076,-0.0708 -0.152,-0.1364 -0.23,-0.2036 -0.078,-0.064 -0.156,-0.1328 -0.2364,-0.19719 -0.0796,-0.064 -0.162,-0.1276 -0.244,-0.1896 -0.0824,-0.064 -0.1648,-0.122 -0.24919,-0.1816 -0.0844,-0.0568 -0.1688,-0.1172 -0.2548,-0.174 -0.086,-0.0568 -0.1732,-0.112 -0.2612,-0.166 0.0568,-0.0568 0.1108,-0.108 0.1676,-0.1596 0.0568,-0.0496 0.1144,-0.102 0.174,-0.152 0.0568,-0.0496 0.12,-0.0972 0.1808,-0.144 0.064,-0.0496 0.12559,-0.0908 0.18959,-0.13399 0.064,-0.0424 0.13,-0.0844 0.1952,-0.1248 0.064,-0.0424 0.132,-0.0788 0.2,-0.1156 0.0708,-0.036 0.1384,-0.0732 0.208,-0.1064 0.0708,-0.036 0.1404,-0.064 0.2128,-0.0964 0.0724,-0.028 0.1456,-0.0568 0.2184,-0.086 0.074,-0.028 0.14839,-0.0496 0.22359,-0.0752 0.0752,-0.02 0.1512,-0.0424 0.2284,-0.064 0.0768,-0.02 0.1548,-0.036 0.2328,-0.0496 0.0788,-0.016 0.156,-0.028 0.2364,-0.0424 0.0796,-0.016 0.1596,-0.02 0.2412,-0.028 0.0808,-0.008 0.162,-0.016 0.244,-0.02 0.0824,-0.008 0.1652,-0.008 0.2492,-0.008 z m 10.80737,3.60298 c -0.66276,0 -1.201,0.53787 -1.201,1.20103 0,0.66343 0.53788,1.20099 1.201,1.20099 h 2.40354 c 0.66348,0 1.19943,-0.53648 1.19943,-1.20099 0,-0.66348 -0.53643,-1.20103 -1.19943,-1.20103 z m -20.41535,8.40862 c -0.66348,0 -0.60032,0.53788 -0.60032,1.201 v 4.803962 c 0,0.66204 -0.064,1.19936 0.60032,1.19936 0.66279,0 0.60031,-0.53716 0.60031,-1.19936 v -4.803962 c 0,-0.66348 0.064,-1.201 -0.60031,-1.201 z m 9.60798,0 c -0.66348,0 -0.60032,0.53788 -0.60032,1.201 v 4.803962 c 0,0.66204 -0.064,1.19936 0.60032,1.19936 0.66275,0 0.60031,-0.53716 0.60031,-1.19936 v -4.803962 c 0,-0.66348 0.064,-1.201 -0.60031,-1.201 z m -4.80397,2.40199 c -0.66348,0 -0.60036,0.53787 -0.60036,1.20099 v 4.802332 c 0,0.66348 -0.064,1.20099 0.60036,1.20099 0.66275,0 0.60031,-0.53787 0.60031,-1.20099 v -4.802332 c 0,-0.66348 0.064,-1.20099 -0.60031,-1.20099 z m -4.83529,7.204312 c -0.64928,0.016 -1.16972,0.54852 -1.16972,1.201 0,0.66347 0.53788,1.20099 1.201,1.20099 0.66207,0 1.20099,-0.53788 1.20099,-1.20099 0,-0.66348 -0.53788,-1.201 -1.20099,-1.201 -0.008,0 -0.02,-2e-4 -0.028,0 z m 9.60794,0 c -0.64856,0.016 -1.16968,0.54852 -1.16968,1.201 0,0.66347 0.53788,1.20099 1.201,1.20099 0.66203,0 1.20099,-0.53788 1.20099,-1.20099 0,-0.66348 -0.53788,-1.201 -1.20099,-1.201 -0.008,0 -0.02,-2e-4 -0.028,0 z m -4.77265,2.40199 c -0.66348,0 -1.20104,0.53647 -1.20104,1.20099 0,0.66348 0.53788,1.20099 1.20104,1.20099 0.66203,0 1.20099,-0.53787 1.20099,-1.20099 0,-0.66348 -0.53788,-1.20099 -1.20099,-1.20099 z m -97.255557,0.0972 v 19.01108 h 3.20262 v -6.91828 c 0,-0.9224 0.154,-1.68219 0.46124,-2.27995 0.32439,-0.61519 0.77819,-1.07651 1.35895,-1.38399 0.58044,-0.3072 1.24695,-0.46124 1.99851,-0.46124 1.02487,0 1.81799,0.3 2.3817,0.89764 0.58044,0.5982 0.871,1.50195 0.871,2.7147 v 7.4312 h 3.20266 v -7.84092 c 0,-1.38351 -0.2476,-2.50982 -0.74284,-3.38093 -0.49528,-0.8882 -1.17899,-1.54651 -2.05007,-1.97347 -0.85407,-0.42716 -1.82646,-0.64147 -2.91966,-0.64147 -1.19567,0 -2.25522,0.23999 -3.17758,0.71775 -0.53644,0.274 -0.99739,0.61948 -1.38399,1.03679 v -6.92915 z m -71.277827,1.07595 5.943999,17.93513 h 3.5607 l 4.50693,-13.26096 4.43493,13.26096 h 3.5357 l 5.94552,-17.93513 h -3.17758 l -4.59289,13.71447 -4.52877,-13.71447 h -3.07442 l -4.63353,13.64407 -4.461529,-13.64407 z m 115.620794,0 v 17.93513 h 7.84083 c 1.94723,0 3.65566,-0.376 5.12457,-1.12748 1.46895,-0.75159 2.61266,-1.7937 3.43254,-3.12606 0.81987,-1.34935 1.23075,-2.92134 1.23075,-4.71485 0,-1.81055 -0.41088,-3.38094 -1.23075,-4.71329 -0.81988,-1.33227 -1.96359,-2.3745 -3.43254,-3.12598 -1.46891,-0.75159 -3.17734,-1.12747 -5.12457,-1.12747 z m -54.770377,1.22907 v 3.12602 h -2.25503 v 2.5631 h 2.25503 v 6.5836 c 0,1.52012 0.40944,2.67335 1.22915,3.45906 0.81987,0.76864 1.98255,1.15256 3.4857,1.15256 0.58043,0 1.14387,-0.0768 1.69047,-0.23 0.54639,-0.154 1.00811,-0.384 1.38395,-0.69116 l -0.89768,-2.28154 c -0.47823,0.37599 -1.076229,0.56483 -1.793629,0.56483 -0.598191,0 -1.067391,-0.1788 -1.408991,-0.53787 -0.324389,-0.3592 -0.486069,-0.86316 -0.486069,-1.51216 v -6.50704 h 3.66401 v -2.56306 h -3.66401 v -3.12606 z m 91.614947,0 v 3.12602 h -2.25495 v 2.5631 h 2.25495 v 6.5836 c 0,1.52012 0.40943,2.67335 1.22919,3.45906 0.81984,0.76864 1.98099,1.15256 3.4841,1.15256 0.58048,0 1.14543,-0.0768 1.69203,-0.23 0.54639,-0.154 1.00659,-0.384 1.38239,-0.69116 l -0.89608,-2.28154 c -0.47827,0.37599 -1.07627,0.56483 -1.79366,0.56483 -0.59748,0 -1.06736,-0.1788 -1.409,-0.53787 -0.32439,-0.3592 -0.48603,-0.86316 -0.48603,-1.51216 v -6.50704 h 3.66241 v -2.56306 h -3.66241 v -3.12606 z m -33.51371,1.58879 h 4.35677 c 1.34939,0 2.51051,0.2568 3.48414,0.76944 0.99067,0.51232 1.75051,1.22939 2.27999,2.1517 0.54639,0.9054 0.81947,1.98083 0.81947,3.22774 0,1.22983 -0.2732,2.30691 -0.81947,3.22926 -0.52936,0.92232 -1.28932,1.63939 -2.27999,2.15179 -0.97363,0.51232 -2.13475,0.76931 -3.48414,0.76931 h -4.35677 z m -83.697441,1.28076 c -1.366468,0 -2.5879,0.29999 -3.663976,0.89767 -1.059032,0.59747 -1.894988,1.42583 -2.509944,2.48478 -0.597476,1.04204 -0.897554,2.24603 -0.897554,3.6125 0,1.34935 0.307998,2.55334 0.922594,3.61234 0.632276,1.05895 1.512392,1.89654 2.639704,2.51142 1.144472,0.59816 2.476864,0.89608 3.997096,0.89608 h 0.0016 c 1.195712,0 2.255304,-0.1872 3.177619,-0.56272 0.939432,-0.3932 1.716749,-0.94812 2.331624,-1.66543 l -1.717028,-1.97199 c -0.47828,0.51236 -1.023956,0.88688 -1.638832,1.126 -0.615196,0.23919 -1.306552,0.35959 -2.075184,0.35959 -0.888236,0 -1.674952,-0.1712 -2.358228,-0.51307 -0.683356,-0.3412 -1.211432,-0.8286 -1.587228,-1.46056 -0.2364,-0.39799 -0.3988,-0.83327 -0.486076,-1.30579 h 10.733932 c 0.016,-0.154 0.02,-0.31719 0.02,-0.48819 0.016,-0.1712 0.02,-0.3248 0.02,-0.46124 0,-1.43483 -0.298001,-2.68174 -0.896076,-3.74066 -0.597477,-1.05899 -1.417913,-1.87751 -2.459824,-2.45826 -1.041913,-0.58044 -2.230069,-0.87267 -3.56234,-0.87267 z m 14.835704,0 c -1.09319,0 -2.15278,0.1464 -3.17762,0.43643 -1.00779,0.2732 -1.87862,0.69184 -2.6131,1.25575 l 1.25571,2.33159 c 0.51232,-0.42716 1.13583,-0.76012 1.87035,-0.99916 0.75152,-0.2392 1.51135,-0.35959 2.27999,-0.35959 1.14439,0 1.99783,0.26519 2.56146,0.79447 0.5634,0.51232 0.84603,1.23887 0.84603,2.17835 v 0.2052 h -3.53569 c -1.38359,0 -2.49395,0.17879 -3.33094,0.53787 -0.83696,0.3592 -1.44287,0.84564 -1.81871,1.46059 -0.358396,0.6152 -0.537876,1.30651 -0.537876,2.07515 0,0.78568 0.2044,1.49475 0.614516,2.12671 0.4272,0.61523 1.02503,1.10195 1.79367,1.46067 0.76863,0.3412 1.66491,0.51304 2.68974,0.51304 1.21275,0 2.21207,-0.222 2.99782,-0.66632 0.55348,-0.3064 0.98924,-0.69896 1.30727,-1.17595 v 1.66239 h 3.02282 v -8.01927 c 0,-1.98131 -0.54707,-3.44226 -1.64034,-4.3817 -1.07612,-0.95651 -2.60375,-1.43558 -4.5851,-1.43558 z m 44.716717,0 c -1.36647,0 -2.5879,0.29999 -3.66401,0.89767 -1.05892,0.59747 -1.89647,1.42583 -2.51139,2.48478 -0.597477,1.04204 -0.895987,2.24603 -0.895987,3.6125 0,1.34935 0.305587,2.55334 0.921027,3.61234 0.63228,1.05895 1.51231,1.89654 2.63963,2.51142 1.14447,0.59816 2.47694,0.89608 3.9971,0.89608 1.19567,0 2.2537,-0.1872 3.1761,-0.56272 0.93943,-0.3932 1.71667,-0.94812 2.33158,-1.66543 l -1.7155,-1.97199 c -0.47828,0.51236 -1.02544,0.88688 -1.64039,1.126 -0.6152,0.23919 -1.30651,0.35959 -2.07515,0.35959 -0.88821,0 -1.67344,-0.1712 -2.35663,-0.51307 -0.68336,-0.3412 -1.21308,-0.8286 -1.58887,-1.46056 -0.2364,-0.39799 -0.3988,-0.83327 -0.48608,-1.30579 h 10.7339 c 0.02,-0.154 0.028,-0.31719 0.028,-0.48819 0.02,-0.1712 0.02,-0.3248 0.02,-0.46124 0,-1.43483 -0.298,-2.68174 -0.89608,-3.74066 -0.59747,-1.05899 -1.41791,-1.87751 -2.45982,-2.45826 -1.04195,-0.58044 -2.22846,-0.87267 -3.56075,-0.87267 z m 17.90862,0 c -1.31523,0 -2.41611,0.23999 -3.3043,0.71775 -0.64928,0.3564 -1.17067,0.83711 -1.56379,1.44027 v -2.00319 h -3.04946 v 13.68168 l 3.2027,0.002 v -6.63668 c 0,-1.40067 0.35999,-2.45075 1.07747,-3.1511 0.7174,-0.7174 1.68183,-1.07584 2.89458,-1.07584 0.1192,0 0.2384,0.008 0.3584,0.02 0.12,0 0.2484,0.02 0.3844,0.0496 z m 28.9881,0 c -1.09324,0 -2.15123,0.1464 -3.1761,0.43643 -1.0078,0.2732 -1.88015,0.69184 -2.61467,1.25575 l 1.25571,2.33159 c 0.51232,-0.42716 1.13584,-0.76012 1.87035,-0.99916 0.75156,-0.2392 1.51131,-0.35959 2.27995,-0.35959 1.14443,0 1.99942,0.26519 2.56314,0.79447 0.5634,0.51232 0.84596,1.23887 0.84596,2.17835 v 0.2052 h -3.5357 c -1.38359,0 -2.49394,0.17879 -3.33094,0.53787 -0.83696,0.3592 -1.44443,0.84564 -1.82023,1.46059 -0.3592,0.6152 -0.53787,1.30651 -0.53787,2.07515 0,0.78568 0.20559,1.49475 0.61591,2.12671 0.4272,0.61523 1.02351,1.10195 1.79215,1.46067 0.76864,0.3412 1.66643,0.51304 2.6913,0.51304 1.21272,0 2.21203,-0.222 2.99778,-0.66632 0.55276,-0.306 0.98776,-0.69824 1.30572,-1.17431 v 1.66075 h 3.02438 v -8.01927 c 0,-1.98131 -0.54712,-3.44226 -1.64039,-4.3817 -1.07608,-0.95651 -2.60527,-1.43558 -4.58661,-1.43558 z m 26.41559,0 c -1.09311,0 -2.15119,0.1464 -3.17606,0.43643 -1.00779,0.2732 -1.88015,0.69184 -2.61467,1.25575 l 1.25576,2.33159 c 0.51236,-0.42716 1.13579,-0.76012 1.8703,-0.99916 0.75152,-0.2392 1.51136,-0.35959 2.27999,-0.35959 1.14447,0 1.99939,0.26519 2.56311,0.79447 0.56339,0.51232 0.84439,1.23887 0.84439,2.17835 v 0.2052 h -3.5357 c -1.38359,0 -2.49238,0.17879 -3.32938,0.53787 -0.83695,0.3592 -1.44443,0.84564 -1.82027,1.46059 -0.35839,0.6152 -0.53783,1.30651 -0.53783,2.07515 0,0.78568 0.2044,1.49475 0.61447,2.12671 0.4272,0.61523 1.02512,1.10195 1.79375,1.46067 0.76864,0.3412 1.66639,0.51304 2.69123,0.51304 1.21275,0 2.21206,-0.222 2.99782,-0.66632 0.55279,-0.306 0.98775,-0.69824 1.30579,-1.17431 v 1.66075 h 3.02274 v -8.01927 c 0,-1.98131 -0.54568,-3.44226 -1.63879,-4.3817 -1.07611,-0.95651 -2.60522,-1.43558 -4.58665,-1.43558 z m -132.861611,2.56306 c 0.768636,0 1.444392,0.17119 2.025148,0.51307 0.597476,0.3412 1.067356,0.8112 1.408952,1.40904 0.2404,0.42291 0.390796,0.89211 0.453436,1.40898 h -7.784548 c 0.0708,-0.51375 0.215596,-0.97463 0.437796,-1.38402 0.341196,-0.6152 0.803196,-1.09236 1.383952,-1.434 0.598196,-0.3412 1.289472,-0.51307 2.075224,-0.51307 z m 59.547741,0 c 0.76865,0 1.4444,0.17119 2.02516,0.51307 0.59748,0.3412 1.06735,0.8112 1.40895,1.40904 0.242,0.42291 0.3932,0.89211 0.45488,1.40898 h -7.7846 c 0.0708,-0.51375 0.2156,-0.97463 0.43784,-1.38402 0.3412,-0.6152 0.80163,-1.09236 1.38235,-1.434 0.59747,-0.3412 1.28943,-0.51307 2.07514,-0.51307 z m -44.996627,5.406 h 3.30429 v 1.58887 c -0.27319,0.70036 -0.72535,1.23016 -1.35739,1.58887 -0.61519,0.3584 -1.31603,0.53788 -2.10174,0.53788 -0.81988,0 -1.46071,-0.1712 -1.92187,-0.51304 -0.46124,-0.34119 -0.69116,-0.80327 -0.69116,-1.38403 0,-0.51232 0.1872,-0.93907 0.56272,-1.28075 0.376,-0.3584 1.11171,-0.53784 2.20491,-0.53784 z m 91.613387,0 h 3.30586 v 1.58887 c -0.2732,0.70036 -0.72692,1.23016 -1.35896,1.58887 -0.61519,0.3584 -1.31443,0.53788 -2.1001,0.53788 -0.81996,0 -1.46079,-0.1712 -1.92195,-0.51304 -0.46124,-0.34119 -0.69115,-0.80327 -0.69115,-1.38403 0,-0.51232 0.18719,-0.93907 0.56271,-1.28075 0.376,-0.3584 1.11023,-0.53784 2.20339,-0.53784 z m 26.41563,0 h 3.3043 v 1.58887 c -0.2732,0.70036 -0.72535,1.23016 -1.35739,1.58887 -0.61452,0.3584 -1.31443,0.53788 -2.10011,0.53788 -0.81987,0 -1.46079,-0.1712 -1.92195,-0.51304 -0.46123,-0.34119 -0.69255,-0.80327 -0.69255,-1.38403 0,-0.51232 0.1888,-0.93907 0.56483,-1.28075 0.376,-0.3584 1.11024,-0.53784 2.20335,-0.53784 z"
       inkscape:export-filename="D:\CODES\WeatherDataLogo.png"
       inkscape:export-xdpi="96"
       inkscape:export-ydpi="96" />
  </g>
</svg>
